<svg width="16" height="16" viewBox="0 0 70 70" fill="none" xmlns="http://www.w3.org/2000/svg">
<g clip-path="url(#clip0_623_5880)">
<path d="M34.9993 70C54.1131 70 70 54.1471 70 35C70 15.8866 54.0779 0 34.9641 0C15.8181 0 0 15.8866 0 35C0 54.1471 15.8518 70 34.9993 70ZM35.0007 64.1672C18.802 64.1672 5.86371 51.1955 5.86371 35C5.86371 18.8367 18.7668 5.83285 34.9641 5.83285C51.1263 5.83285 64.1304 18.8382 64.1656 35C64.1992 51.197 51.16 64.1672 34.9978 64.1672M34.9641 41.2106C36.6098 41.2106 37.5366 40.2838 37.5702 38.5006L38.0856 20.3828C38.1207 18.6317 36.7474 17.3287 34.929 17.3287C33.0754 17.3287 31.7724 18.5981 31.8061 20.3476L32.2526 38.5006C32.2863 40.2501 33.2482 41.2106 34.9641 41.2106ZM34.9641 52.3624C36.9187 52.3624 38.6683 50.7841 38.6683 48.7945C38.6683 46.7696 36.9538 45.2251 34.9641 45.2251C32.9393 45.2251 31.257 46.8033 31.257 48.7945C31.257 50.7504 32.973 52.3624 34.9641 52.3624Z" fill="#FF0000"/>
</g>
<defs>
<clipPath id="clip0_623_5880">
<rect width="70" height="70" fill="white"/>
</clipPath>
</defs>
</svg>
