<svg width="67" height="19" viewBox="0 0 67 19" fill="none" xmlns="http://www.w3.org/2000/svg">
<path fill-rule="evenodd" clip-rule="evenodd" d="M67.0009 0H37.5207V19H67.0009V0ZM46.8304 5.23151V13.5006C46.8304 13.505 46.8304 13.5093 46.8305 13.5137C46.8306 13.5181 46.8307 13.5226 46.8308 13.527C46.8313 13.5445 46.8317 13.5618 46.8304 13.5786C46.8262 13.6264 46.8397 13.6547 46.8975 13.6469C46.9113 13.6456 46.9251 13.646 46.9388 13.6465C46.9426 13.6466 46.9463 13.6467 46.95 13.6468C46.9532 13.6469 46.9563 13.6469 46.9595 13.6469C47.2036 13.6469 47.4478 13.647 47.692 13.6471C48.1808 13.6473 48.6699 13.6476 49.159 13.6469C49.1673 13.6469 49.1751 13.647 49.1824 13.647C49.1886 13.6471 49.1945 13.6471 49.2001 13.6472C49.247 13.6478 49.2699 13.648 49.2808 13.6374C49.2912 13.6272 49.2907 13.6073 49.2898 13.5683C49.2895 13.5552 49.2892 13.5399 49.2892 13.5221V5.24321L49.289 5.23427L49.2887 5.2237C49.2882 5.2107 49.2878 5.19769 49.2892 5.18469C49.2943 5.13592 49.2768 5.11056 49.221 5.11642C49.21 5.11771 49.1986 5.11728 49.187 5.11685C49.1811 5.11664 49.1752 5.11642 49.1693 5.11642C48.9229 5.11642 48.6763 5.11631 48.4297 5.1162H48.4288C47.9356 5.11598 47.4421 5.11577 46.9492 5.11642C46.9346 5.11642 46.9217 5.11623 46.9104 5.11607C46.8698 5.1155 46.8494 5.11521 46.8393 5.12471C46.829 5.13432 46.8293 5.15393 46.83 5.19338C46.8302 5.20445 46.8304 5.21709 46.8304 5.23151ZM59.0769 5.1167H55.4077C54.1861 5.1167 52.9645 5.1167 51.7439 5.11573C51.7393 5.11573 51.7349 5.11575 51.7304 5.11579C51.7256 5.11583 51.7209 5.11589 51.7161 5.11594C51.6979 5.11616 51.6798 5.11637 51.6612 5.11573C51.6199 5.11377 51.6054 5.13231 51.6085 5.16839C51.6092 5.17941 51.609 5.18999 51.6088 5.20071C51.6086 5.20612 51.6085 5.21161 51.6085 5.21716V7.19714L51.6085 7.21767C51.6082 7.26018 51.6081 7.28111 51.6191 7.29132C51.6298 7.30121 51.651 7.30103 51.6926 7.30068C51.6969 7.30065 51.7014 7.30061 51.7062 7.30058C51.7109 7.30055 51.7159 7.30053 51.7211 7.30053H54.025C54.1001 7.30053 54.1373 7.30053 54.1557 7.31811C54.1737 7.33534 54.1738 7.36947 54.1738 7.43708V13.5419C54.1738 13.5536 54.1736 13.564 54.1735 13.5732C54.1729 13.6083 54.1726 13.6266 54.1822 13.6361C54.1926 13.6466 54.2149 13.6465 54.2615 13.6463L54.2843 13.6462H56.4952C56.5644 13.6462 56.5988 13.6462 56.6158 13.63C56.6326 13.614 56.6326 13.5823 56.6326 13.5194V7.41465C56.6326 7.40151 56.6324 7.38989 56.6322 7.37961C56.6316 7.34187 56.6313 7.32199 56.6415 7.31185C56.6526 7.30088 56.676 7.30104 56.7248 7.30137C56.7341 7.30144 56.7443 7.3015 56.7555 7.3015H59.1007C59.2019 7.3015 59.2019 7.30151 59.203 7.2069V5.23667C59.203 5.22314 59.2031 5.21111 59.2033 5.20043C59.2038 5.15751 59.2041 5.1362 59.193 5.12578C59.182 5.11552 59.16 5.11581 59.1163 5.11638C59.1048 5.11653 59.0917 5.1167 59.0769 5.1167Z" fill="#BECAAA"/>
<path d="M19.2582 8.43723C19.6763 7.70864 20.3444 7.35946 20.9929 7.3458C22.3084 7.34288 23.1684 8.04221 23.4029 9.01172C23.545 9.59596 23.4818 10.1636 23.1778 10.6942C22.8199 11.3175 22.2617 11.6803 21.5106 11.7613C20.7843 11.8403 20.1504 11.6462 19.6327 11.1526C19.3008 10.8366 19.1005 10.4513 19.0155 10.0163C18.9076 9.46526 18.974 8.93174 19.2582 8.43723Z" fill="#BECAAA"/>
<path fill-rule="evenodd" clip-rule="evenodd" d="M29.48 0H0V19H29.48L37.52 9.5L29.48 0ZM13.0342 8.1116C13.0789 8.14586 13.1239 8.18034 13.1695 8.21489C13.1997 8.1975 13.2184 8.17369 13.236 8.15126C13.2401 8.14604 13.2442 8.14086 13.2483 8.13589C13.4081 7.95642 13.5668 7.77598 13.7255 7.59554C14.044 7.23563 14.3615 6.87572 14.679 6.51484C14.7423 6.44266 14.7402 6.4095 14.6676 6.35098C14.6105 6.30416 14.5524 6.25832 14.4933 6.21248C13.9891 5.82234 13.4351 5.51802 12.8074 5.34148C12.3882 5.22444 11.9598 5.16007 11.524 5.13178C10.9555 5.09569 10.3921 5.11325 9.83399 5.23517C7.87939 5.66043 6.42071 7.18979 6.24952 9.15026C6.20388 9.67891 6.24745 10.2027 6.39062 10.7167C6.71639 11.8803 7.42394 12.7718 8.54752 13.3589C9.15963 13.6789 9.82258 13.8476 10.5198 13.9003C11.1101 13.9451 11.6942 13.911 12.271 13.7881C13.2462 13.5803 14.1084 13.1609 14.8751 12.5611C14.9363 12.5133 14.9612 12.4655 14.9612 12.3894C14.9587 11.4563 14.9588 10.5226 14.959 9.58918L14.9591 8.88887C14.9591 8.87674 14.9582 8.86443 14.9573 8.85213C14.9553 8.82486 14.9533 8.79767 14.9612 8.7728C14.9703 8.74392 14.9538 8.72736 14.9377 8.71122C14.9245 8.69791 14.9116 8.6849 14.9134 8.66551C14.9176 8.63332 14.8948 8.62845 14.8678 8.62845H10.7501C10.7422 8.62845 10.7341 8.62866 10.7261 8.62887C10.7098 8.62931 10.6934 8.62975 10.6775 8.62845C10.636 8.62454 10.6225 8.64405 10.6256 8.68014C10.627 8.69513 10.6265 8.71056 10.626 8.72584C10.6258 8.73341 10.6256 8.74098 10.6256 8.74841C10.6256 8.95324 10.6255 9.15807 10.6253 9.36289C10.6251 9.77254 10.6249 10.1822 10.6256 10.5918C10.6256 10.6088 10.6252 10.6234 10.625 10.6359C10.6241 10.6734 10.6237 10.6927 10.6337 10.7025C10.6442 10.7128 10.6665 10.7126 10.7122 10.7121C10.7237 10.712 10.7366 10.7118 10.7511 10.7118H12.3799C12.3943 10.7118 12.407 10.7117 12.4183 10.7115C12.4634 10.711 12.4854 10.7108 12.4958 10.721C12.5057 10.7307 12.5054 10.7497 12.5048 10.7866C12.5046 10.7996 12.5043 10.8149 12.5044 10.8328C12.5051 10.9218 12.5049 11.0104 12.5047 11.0992C12.5046 11.1436 12.5044 11.1881 12.5044 11.2327V11.2359C12.5044 11.419 12.5044 11.4204 12.3291 11.4999C11.8156 11.732 11.273 11.7984 10.7127 11.732C10.0902 11.6589 9.59226 11.3809 9.22707 10.9001C8.98949 10.587 8.8598 10.2339 8.81104 9.8535C8.74983 9.36777 8.81208 8.90057 9.04551 8.45971C9.32666 7.93009 9.75203 7.5497 10.3631 7.37511C10.7916 7.25221 11.2252 7.2844 11.6547 7.37316C12.0438 7.45314 12.3831 7.6326 12.6953 7.85791C12.8098 7.93967 12.9211 8.02498 13.0342 8.1116ZM24.5576 6.34216C23.598 5.517 22.4547 5.12394 21.273 5.11516C20.7273 5.11613 20.3195 5.15807 19.8869 5.26439C18.6316 5.57358 17.6491 6.23682 16.9965 7.29606C16.3263 8.38261 16.1904 9.54816 16.5649 10.7469C16.9841 12.087 17.8773 13.0624 19.2593 13.6057C20.3206 14.0221 21.4203 14.0777 22.5294 13.8027C23.8179 13.4837 24.8056 12.7786 25.4529 11.6783C25.9987 10.7508 26.1449 9.75591 25.9416 8.71716C25.759 7.78374 25.3025 6.98394 24.5576 6.34216Z" fill="#BECAAA"/>
</svg>
