<svg width="25" height="24" viewBox="0 0 25 24" fill="none" xmlns="http://www.w3.org/2000/svg">
<path fill-rule="evenodd" clip-rule="evenodd" d="M12.6375 3C15.8746 3 18.4988 5.56679 18.4988 8.73338C18.4988 11.252 14.3438 15.9956 12.6375 18.5936C10.9316 15.9956 6.7766 11.252 6.7766 8.73338C6.7766 5.56679 9.40079 3 12.6375 3ZM6.99544 19.2674H18.2799L19.6377 21H5.6377L6.99544 19.2674ZM12.6375 6.99361C13.9438 6.99361 15.0029 8.02941 15.0029 9.30708C15.0029 10.585 13.9438 11.6205 12.6375 11.6205C11.3313 11.6205 10.2725 10.585 10.2725 9.30708C10.2725 8.02941 11.3313 6.99361 12.6375 6.99361Z" fill="#224722"/>
</svg>
