
<svg width="80" height="80" viewBox="0 0 80 80" fill="none" xmlns="http://www.w3.org/2000/svg">
<g>
<path d="M54.2829 48.555C54.5642 48.0375 54.9804 47.6437 55.5316 47.3737C56.0829 47.1037 56.7522 46.9688 57.5397 46.9688V48.5381C57.4497 48.5268 57.326 48.5212 57.1685 48.5212C56.291 48.5212 55.5991 48.7856 55.0929 49.3143C54.5979 49.8318 54.3504 50.5743 54.3504 51.5417V55.9966H52.7305V47.0531H54.2829V48.555Z" stroke="transparent"/>
<path d="M46.6925 56.0979C45.8038 56.0979 45.0051 55.901 44.2963 55.5072C43.5876 55.1135 43.0308 54.5735 42.6258 53.8873C42.232 53.1898 42.0352 52.4023 42.0352 51.5249C42.0352 50.6474 42.232 49.8655 42.6258 49.1793C43.0308 48.4818 43.5876 47.9418 44.2963 47.5594C45.0051 47.1656 45.8038 46.9688 46.6925 46.9688C47.5812 46.9688 48.3743 47.1656 49.0718 47.5594C49.7806 47.9418 50.3318 48.4818 50.7255 49.1793C51.1305 49.8655 51.333 50.6474 51.333 51.5249C51.333 52.4023 51.1305 53.1898 50.7255 53.8873C50.3318 54.5735 49.7806 55.1135 49.0718 55.5072C48.3743 55.901 47.5812 56.0979 46.6925 56.0979ZM46.6925 54.6804C47.2663 54.6804 47.7781 54.551 48.2281 54.2923C48.6893 54.0223 49.0493 53.6511 49.3081 53.1786C49.5668 52.6948 49.6962 52.1436 49.6962 51.5249C49.6962 50.9061 49.5668 50.3605 49.3081 49.888C49.0493 49.4043 48.6893 49.0331 48.2281 48.7743C47.7781 48.5156 47.2663 48.3862 46.6925 48.3862C46.1188 48.3862 45.6013 48.5156 45.1401 48.7743C44.6901 49.0331 44.3301 49.4043 44.0601 49.888C43.8014 50.3605 43.672 50.9061 43.672 51.5249C43.672 52.1436 43.8014 52.6948 44.0601 53.1786C44.3301 53.6511 44.6901 54.0223 45.1401 54.2923C45.6013 54.551 46.1188 54.6804 46.6925 54.6804Z" stroke="transparent"/>
<path d="M38.096 56.0979C37.1847 56.0979 36.3691 55.901 35.6492 55.5072C34.9404 55.1135 34.3836 54.5735 33.9786 53.8873C33.5736 53.1898 33.3711 52.4023 33.3711 51.5249C33.3711 50.6474 33.5736 49.8655 33.9786 49.1793C34.3836 48.4818 34.9404 47.9418 35.6492 47.5594C36.3691 47.1656 37.1847 46.9688 38.096 46.9688C38.9059 46.9688 39.6259 47.1319 40.2559 47.4581C40.8971 47.7844 41.3921 48.2568 41.7408 48.8756L40.509 49.6687C40.2278 49.2412 39.879 48.9206 39.4628 48.7068C39.0466 48.4931 38.5853 48.3862 38.0791 48.3862C37.4941 48.3862 36.9654 48.5156 36.4929 48.7743C36.0316 49.0331 35.666 49.4043 35.396 49.888C35.1373 50.3605 35.0079 50.9061 35.0079 51.5249C35.0079 52.1548 35.1373 52.7117 35.396 53.1954C35.666 53.6679 36.0316 54.0335 36.4929 54.2923C36.9654 54.551 37.4941 54.6804 38.0791 54.6804C38.5853 54.6804 39.0466 54.5735 39.4628 54.3598C39.879 54.146 40.2278 53.8254 40.509 53.3979L41.7408 54.1742C41.3921 54.7929 40.8971 55.271 40.2559 55.6085C39.6259 55.9347 38.9059 56.0979 38.096 56.0979Z"  stroke="transparent"/>
<path d="M28.7388 54.6804C29.8075 54.6804 30.6681 54.3204 31.3206 53.6004L32.198 54.6466C31.8043 55.1191 31.3037 55.4791 30.6962 55.7266C30.1 55.9741 29.4306 56.0979 28.6881 56.0979C27.7432 56.0979 26.9051 55.9066 26.1738 55.5241C25.4426 55.1304 24.8745 54.5848 24.4695 53.8873C24.0758 53.1898 23.8789 52.4023 23.8789 51.5249C23.8789 50.6586 24.0702 49.8768 24.4526 49.1793C24.8464 48.4818 25.3807 47.9418 26.0557 47.5594C26.7419 47.1656 27.5126 46.9688 28.3675 46.9688C29.1775 46.9688 29.9144 47.1544 30.5781 47.5256C31.2418 47.8856 31.7706 48.3975 32.1643 49.0612C32.558 49.7249 32.7605 50.4899 32.7718 51.3561L25.6676 52.7398C25.8926 53.3586 26.2695 53.8367 26.7982 54.1742C27.3382 54.5117 27.985 54.6804 28.7388 54.6804ZM28.3675 48.3356C27.805 48.3356 27.2988 48.465 26.8488 48.7237C26.4101 48.9824 26.067 49.3481 25.8195 49.8205C25.572 50.2818 25.4482 50.8218 25.4482 51.4405V51.6092L31.1687 50.5293C31.0224 49.8768 30.6962 49.3481 30.19 48.9431C29.6837 48.5381 29.0763 48.3356 28.3675 48.3356Z" stroke="transparent"/>
<path d="M11.8438 44.1855H16.8217C18.0704 44.1855 19.1785 44.433 20.146 44.928C21.1135 45.423 21.8616 46.1205 22.3903 47.0205C22.9303 47.9092 23.2003 48.9329 23.2003 50.0916C23.2003 51.2503 22.9303 52.2797 22.3903 53.1797C21.8616 54.0684 21.1135 54.7602 20.146 55.2552C19.1785 55.7502 18.0704 55.9977 16.8217 55.9977H11.8438V44.1855ZM16.7205 54.5296C17.6767 54.5296 18.5148 54.344 19.2348 53.9728C19.966 53.6015 20.5285 53.084 20.9222 52.4203C21.316 51.7453 21.5128 50.9691 21.5128 50.0916C21.5128 49.2142 21.316 48.4435 20.9222 47.7798C20.5285 47.1048 19.966 46.5817 19.2348 46.2105C18.5148 45.8392 17.6767 45.6536 16.7205 45.6536H13.5312V54.5296H16.7205Z" stroke="transparent"/>
<path d="M49.6039 33.5531V42.4966H48.0515V41.0792C47.6915 41.5741 47.2359 41.951 46.6847 42.2097C46.1334 42.4685 45.5259 42.5979 44.8622 42.5979C43.996 42.5979 43.2198 42.4066 42.5335 42.0241C41.8473 41.6416 41.3073 41.1073 40.9136 40.421C40.5311 39.7236 40.3398 38.9248 40.3398 38.0249C40.3398 37.1249 40.5311 36.3318 40.9136 35.6456C41.3073 34.9593 41.8473 34.425 42.5335 34.0425C43.2198 33.66 43.996 33.4688 44.8622 33.4688C45.5034 33.4688 46.094 33.5925 46.634 33.84C47.174 34.0762 47.624 34.4306 47.984 34.9031V33.5531H49.6039ZM44.9972 41.1804C45.5597 41.1804 46.0715 41.051 46.5328 40.7923C46.994 40.5223 47.354 40.1511 47.6128 39.6786C47.8715 39.1948 48.0009 38.6436 48.0009 38.0249C48.0009 37.4061 47.8715 36.8605 47.6128 36.388C47.354 35.9043 46.994 35.5331 46.5328 35.2743C46.0715 35.0156 45.5597 34.8862 44.9972 34.8862C44.4235 34.8862 43.906 35.0156 43.4448 35.2743C42.9948 35.5331 42.6348 35.9043 42.3648 36.388C42.106 36.8605 41.9767 37.4061 41.9767 38.0249C41.9767 38.6436 42.106 39.1948 42.3648 39.6786C42.6348 40.1511 42.9948 40.5223 43.4448 40.7923C43.906 41.051 44.4235 41.1804 44.9972 41.1804Z" stroke="transparent"/>
<path d="M36.8337 35.055C37.1149 34.5375 37.5312 34.1437 38.0824 33.8737C38.6337 33.6037 39.303 33.4688 40.0905 33.4688V35.0381C40.0005 35.0268 39.8767 35.0212 39.7192 35.0212C38.8418 35.0212 38.1499 35.2856 37.6437 35.8143C37.1487 36.3318 36.9012 37.0743 36.9012 38.0417V42.4966H35.2812V33.5531H36.8337V35.055Z" stroke="transparent"/>
<path d="M29.2433 42.5979C28.3546 42.5979 27.5559 42.401 26.8471 42.0072C26.1384 41.6135 25.5815 41.0735 25.1765 40.3873C24.7828 39.6898 24.5859 38.9023 24.5859 38.0249C24.5859 37.1474 24.7828 36.3655 25.1765 35.6793C25.5815 34.9818 26.1384 34.4418 26.8471 34.0594C27.5559 33.6656 28.3546 33.4688 29.2433 33.4688C30.132 33.4688 30.9251 33.6656 31.6226 34.0594C32.3313 34.4418 32.8826 34.9818 33.2763 35.6793C33.6813 36.3655 33.8838 37.1474 33.8838 38.0249C33.8838 38.9023 33.6813 39.6898 33.2763 40.3873C32.8826 41.0735 32.3313 41.6135 31.6226 42.0072C30.9251 42.401 30.132 42.5979 29.2433 42.5979ZM29.2433 41.1804C29.817 41.1804 30.3289 41.051 30.7789 40.7923C31.2401 40.5223 31.6001 40.1511 31.8588 39.6786C32.1176 39.1948 32.247 38.6436 32.247 38.0249C32.247 37.4061 32.1176 36.8605 31.8588 36.388C31.6001 35.9043 31.2401 35.5331 30.7789 35.2743C30.3289 35.0156 29.817 34.8862 29.2433 34.8862C28.6696 34.8862 28.1521 35.0156 27.6908 35.2743C27.2409 35.5331 26.8809 35.9043 26.6109 36.388C26.3521 36.8605 26.2228 37.4061 26.2228 38.0249C26.2228 38.6436 26.3521 39.1948 26.6109 39.6786C26.8809 40.1511 27.2409 40.5223 27.6908 40.7923C28.1521 41.051 28.6696 41.1804 29.2433 41.1804Z" stroke="transparent"/>
<path d="M23.7168 42.5987C22.8506 42.5987 22.1812 42.3624 21.7087 41.89C21.2362 41.4062 21 40.7312 21 39.865V29.9766H22.62V39.73C22.62 40.2138 22.7324 40.585 22.9574 40.8437C23.1937 41.1025 23.5424 41.2319 24.0037 41.2319C24.2849 41.2319 24.5493 41.1756 24.7968 41.0631L24.8811 42.3962C24.5099 42.5312 24.1218 42.5987 23.7168 42.5987Z" stroke="transparent"/>
<path d="M16.6903 32.0526C15.6104 32.0526 14.7948 32.3001 14.2435 32.7951C13.7035 33.2788 13.4335 33.9876 13.4335 34.9213V36.2712H18.8334V37.7224H13.4335V42.4979H11.7461V34.9044C11.7461 33.5432 12.1736 32.4801 13.0286 31.7151C13.8948 30.9389 15.0985 30.5508 16.6397 30.5508C17.3147 30.5508 17.9447 30.6295 18.5296 30.787C19.1146 30.9333 19.6209 31.1526 20.0484 31.4451L19.4915 32.8457C18.7378 32.317 17.804 32.0526 16.6903 32.0526Z"  stroke="transparent"/>
<path d="M4.60694 45.1626C4.40239 45.0464 4.20006 44.9285 4 44.8089C4.00206 44.8617 4.00426 44.9144 4.0066 44.9671C4.23154 50.0339 5.7518 54.9613 8.42578 59.2742C11.2037 63.7547 15.1258 67.4091 19.7858 69.8588C24.4457 72.3085 29.6741 73.4645 34.9294 73.2069C40.1847 72.9493 45.2758 71.2876 49.6753 68.3939C54.0748 65.5002 57.6227 61.4797 59.9517 56.7489C62.2806 52.018 63.3057 46.7489 62.921 41.4872C62.5362 36.2256 60.7556 31.1627 57.7634 26.8231C57.1434 25.9239 56.4761 25.0625 55.7652 24.2422C55.9149 24.6997 56.0428 25.1628 56.1481 25.6308C56.5405 26.1269 56.9174 26.6368 57.2779 27.1596C60.2102 31.4125 61.9553 36.3741 62.3323 41.5305C62.7094 46.687 61.7047 51.8507 59.4224 56.4869C57.1401 61.1231 53.6631 65.0632 49.3516 67.8991C45.04 70.7349 40.0508 72.3634 34.9006 72.6158C29.7504 72.8682 24.6266 71.7354 20.0598 69.3347C15.493 66.934 11.6494 63.3527 8.92703 58.9617C6.34556 54.798 4.86131 50.0499 4.60694 45.1626Z" />
<path d="M19.3516 64.2031C19.3516 64.2031 21.6869 64.7281 25.293 68.9845C28.1639 72.3721 35.3656 70.0541 39.5225 72.9196C39.5225 72.9196 37.7239 71.4099 32.3395 70.079C27.5233 68.8876 28.7605 67.321 25.5495 65.2655C23.025 63.6492 20.6405 64.0378 19.3516 64.2031Z"  stroke-miterlimit="10"  fill="transparent"/>
<path d="M47.862 1.99977C47.862 1.99977 47.8557 6.54539 50.3954 10.0227C52.7589 13.2594 52.4479 15.3547 52.9026 17.6538C53.485 20.5987 55.3166 24.5767 56.711 25.8173C58.1054 27.0579 43.5055 15.04 47.862 1.99977Z"  stroke-miterlimit="10" fill="transparent"/>
<path d="M60.7034 8.7996C60.7034 8.7996 66.6093 14.9431 63.5916 21.7806C60.6926 28.3512 61.5061 34.2929 62.1693 38.0665C62.8325 41.8402 60.7412 33.0157 60.7066 29.009C60.6864 26.6634 60.2848 23.7398 61.9668 19.4829C63.756 14.9564 61.6772 10.7193 60.7046 8.79906L60.7034 8.7996Z"  stroke-miterlimit="10" fill="transparent"/>
<path d="M61.8215 36.5685C61.8215 36.5685 61.034 33.0278 56.6539 32.0476C51.4336 30.8787 46.2602 24.7877 46.2602 24.7877C46.2602 24.7877 49.145 26.719 52.6425 27.2621C55.4681 27.7006 59.3711 28.5607 61.8215 36.5685Z"  stroke-miterlimit="10" fill="transparent"/>
<path d="M75.7936 26.2137C75.7936 26.2137 77.1288 37.9176 70.8242 42.1683C64.5195 46.4191 61.6394 50.4497 61.2842 53.5138C60.9289 56.5779 61.3154 42.3381 69.2675 38.0091C77.2197 33.68 75.7936 26.2137 75.7936 26.2137Z"  stroke-miterlimit="10" />
</g>
<defs>
<clipPath >
<rect width="80" height="80" fill="white"/>
</clipPath>
</defs>
</svg>
