<svg width="25" height="24" viewBox="0 0 25 24" fill="none" xmlns="http://www.w3.org/2000/svg">
<path d="M20.194 6H5.08134C4.69849 5.99924 4.33025 6.14137 4.05956 6.39446C3.78888 6.64756 3.63689 6.99186 3.6377 7.34985V17.6501C3.63689 18.0081 3.78889 18.3524 4.05956 18.6055C4.33025 18.8586 4.69847 19.0008 5.08134 19H20.194C20.5769 19.0008 20.9451 18.8586 21.2158 18.6055C21.4865 18.3524 21.6385 18.0081 21.6377 17.6501V7.34985C21.6385 6.99188 21.4865 6.64756 21.2158 6.39446C20.9451 6.14136 20.5769 5.99924 20.194 6ZM19.7909 16.3914C20.0364 16.6315 20.0323 17.0108 19.7811 17.2457C19.5299 17.4805 19.1243 17.4843 18.8675 17.2548L14.7185 13.3633L14.1267 13.9166C13.2976 14.6706 11.9776 14.6706 11.1485 13.9166L10.5568 13.3633L6.40781 17.2548C6.28588 17.3703 6.11925 17.4349 5.94528 17.4357C5.77214 17.4357 5.60551 17.3711 5.48276 17.2563C5.36001 17.1415 5.29092 16.9857 5.29092 16.8238C5.29173 16.6612 5.36083 16.5054 5.48438 16.3913L9.63978 12.4999C8.40747 11.3423 6.74521 9.79415 5.48438 8.60842C5.23808 8.369 5.24214 7.98898 5.49332 7.75337C5.7453 7.51852 6.15175 7.51471 6.40778 7.74501C7.80184 9.04774 9.69086 10.8346 10.9987 12.056C11.8628 12.7499 12.2473 13.7151 13.2032 13.0653C14.833 11.5201 17.122 9.39664 18.8673 7.74492C19.1242 7.51462 19.5298 7.51841 19.781 7.75404C20.0329 7.98889 20.037 8.36893 19.7907 8.60833C18.4771 9.83048 16.9432 11.2814 15.6353 12.4998L19.7909 16.3914Z" fill="#224722"/>
</svg>
