<svg width="101" height="36" viewBox="0 0 101 36" fill="none" xmlns="http://www.w3.org/2000/svg">
<g clip-path="url(#clip0_3001_913)">
<path fill-rule="evenodd" clip-rule="evenodd" d="M44.5928 6.10938C44.5928 6.10938 44.5928 6.10938 46.6961 6.10938C47.4625 6.10938 47.8486 6.49106 47.8486 7.35275C47.8486 7.35275 47.8486 7.35275 47.8486 10.4062C47.8486 10.4062 47.8486 10.4062 51.9688 10.4062C51.9688 10.4062 51.9688 10.4062 51.9688 7.35275C51.9688 6.49106 52.3491 6.10938 53.2135 6.10938C53.2135 6.10938 53.2135 6.10938 55.2246 6.10938C55.2246 6.10938 55.2246 6.10938 55.2246 8.11612C55.2246 8.11612 55.2246 8.11612 54.366 8.11612L54.2681 8.21444C54.2681 8.21444 54.2681 8.21443 54.2681 16.8082C54.2681 16.8082 54.2681 16.8082 51.9688 16.8082C51.9688 16.8082 51.9688 16.8082 51.9688 12.5113C51.9688 12.5113 51.9688 12.5113 47.8486 12.5113C47.8486 12.5113 47.8486 12.5113 47.8486 16.8082C47.8486 16.8082 47.8486 16.8082 45.5494 16.8082C45.5494 16.8082 45.5494 16.8082 45.5494 8.21444C45.5494 8.21444 45.5494 8.11612 45.4514 8.11612C45.4514 8.11612 45.4514 8.11612 44.5928 8.11612C44.5928 8.11612 44.5928 8.11612 44.5928 6.10938Z" fill="#D2DBD2"/>
<path fill-rule="evenodd" clip-rule="evenodd" d="M61.2572 5.91406L61.3091 5.91984V8.12322L61.2572 8.11165C59.5342 8.11165 58.1916 9.54587 58.1916 11.3618C58.1916 13.2702 59.5342 14.797 61.2572 14.797L61.3091 14.7854V16.9888L61.2572 16.9945C58.1916 16.9945 55.7021 14.5136 55.7021 11.3618C55.7021 8.3025 58.1916 5.91406 61.2572 5.91406Z" fill="#D2DBD2"/>
<path fill-rule="evenodd" clip-rule="evenodd" d="M61.3115 5.92188L62.3776 6.02597C64.9073 6.52332 66.8147 8.68621 66.8147 11.3638C66.8147 14.1166 64.9073 16.3662 62.3776 16.8809L61.3115 16.9908V14.7874L62.4813 14.533C63.6108 14.0125 64.4233 12.7922 64.4233 11.3638C64.4233 9.99899 63.6108 8.85393 62.4813 8.36814L61.3115 8.12525V5.92188Z" fill="#D2DBD2"/>
<path fill-rule="evenodd" clip-rule="evenodd" d="M67.292 6.10938C67.292 6.10938 67.292 6.10938 70.5017 6.10938H72.0346V8.11612H71.8905C71.7003 8.11612 71.3142 8.11612 70.5478 8.11612C70.5478 8.11612 70.5478 8.11612 70.5478 10.3137C70.5478 10.3137 70.5478 10.3137 71.199 10.3137H72.0346V12.2221H71.5447C71.3027 12.2221 70.98 12.2221 70.5478 12.2221C70.5478 12.2221 70.5478 12.2221 70.5478 14.6106C70.5478 14.7089 70.5478 14.7089 70.6458 14.7089C70.6458 14.7089 70.6458 14.7089 71.3315 14.7089H72.0346V16.8082H71.8329C71.4871 16.8082 70.7898 16.8082 69.4011 16.8082C68.6347 16.8082 68.2543 16.4265 68.2543 15.5648V8.11612C68.2543 8.11612 68.2543 8.11612 67.292 8.11612C67.292 8.11612 67.292 8.11612 67.292 6.10938Z" fill="#D2DBD2"/>
<path fill-rule="evenodd" clip-rule="evenodd" d="M72.0342 6.10938H72.0803C74.1894 6.10938 75.4341 7.25444 75.4341 8.97781C75.4341 10.0246 74.9558 10.6954 74.4775 11.1754C75.3419 11.5571 75.9124 12.5113 75.9124 13.558C75.9124 15.5648 74.3795 16.8082 72.1782 16.8082C72.1782 16.8082 72.1782 16.8082 72.1379 16.8082H72.0342V14.7089H72.2704C73.0369 14.7089 73.5209 14.2289 73.5209 13.4655C73.5209 12.7021 73.0369 12.2221 72.2704 12.2221C72.2704 12.2221 72.2704 12.2221 72.0572 12.2221H72.0342V10.3137H72.0803C72.7545 10.3137 73.1348 9.83371 73.1348 9.16865C73.1348 8.49781 72.7545 8.11612 72.0803 8.11612C72.0803 8.11612 72.0803 8.11612 72.0572 8.11612H72.0342V6.10938Z" fill="#D2DBD2"/>
<path fill-rule="evenodd" clip-rule="evenodd" d="M80.3233 6.10938C80.3233 6.10938 80.3233 6.10938 81.2914 6.10938H81.47V9.16865C81.3778 9.3595 81.2799 9.64287 81.2799 9.93203C81.2799 9.93203 81.2799 9.93203 80.5135 12.1296C80.5135 12.1296 80.5135 12.1296 81.326 12.1296H81.47V14.1306H80.9514C80.6575 14.1306 80.3233 14.1306 79.943 14.1306C79.943 14.1306 79.943 14.1306 79.2687 15.854C79.0786 16.519 78.6983 16.8082 77.9318 16.8082C77.9318 16.8082 77.9318 16.8082 76.4912 16.8082C76.4912 16.8082 76.4912 16.8082 76.4912 14.7089C76.4912 14.7089 76.4912 14.7089 76.9695 14.7089C77.1654 14.7089 77.1654 14.7089 77.2576 14.6106C77.2576 14.6106 77.2576 14.6106 80.3233 6.10938Z" fill="#D2DBD2"/>
<path fill-rule="evenodd" clip-rule="evenodd" d="M81.4678 6.10938H82.6203C82.6203 6.10938 82.6203 6.10938 85.6859 14.6106C85.7781 14.7089 85.7781 14.7089 85.9683 14.7089C85.9683 14.7089 85.9683 14.7089 86.3544 14.7089C86.3544 14.7089 86.3544 14.7089 86.3544 16.8082C86.3544 16.8082 86.3544 16.8082 85.0117 16.8082C84.2453 16.8082 83.865 16.519 83.6691 15.7556C83.6691 15.7556 83.6691 15.7556 83.0006 14.1306C83.0006 14.1306 83.0006 14.1306 81.7098 14.1306H81.4678V12.1296H82.4244C82.4244 12.1296 82.4244 12.1296 81.6637 9.93203C81.6637 9.64287 81.5657 9.3595 81.4678 9.16865V6.10938Z" fill="#D2DBD2"/>
<path fill-rule="evenodd" clip-rule="evenodd" d="M44.5928 19.8594C44.5928 19.8594 44.5928 19.8594 52.9254 19.8594C53.6918 19.8594 54.1701 20.2411 54.1701 21.1027C54.1701 21.1027 54.1701 21.1027 54.1701 28.3606C54.1701 28.4531 54.1701 28.4531 54.2681 28.4531C54.2681 28.4531 54.2681 28.4531 55.0345 28.4531C55.0345 28.4531 55.0345 28.4531 55.0345 30.5582C55.0345 30.5582 55.0345 30.5582 53.0233 30.5582C52.159 30.5582 51.7786 30.1765 51.7786 29.3148C51.7786 29.3148 51.7786 29.3148 51.7786 21.9644C51.7786 21.9644 51.7786 21.8661 51.6807 21.8661C51.6807 21.8661 51.6807 21.8661 47.8486 21.8661C47.8486 21.8661 47.8486 21.8661 47.8486 30.5582C47.8486 30.5582 47.8486 30.5582 45.5494 30.5582C45.5494 30.5582 45.5494 30.5582 45.5494 21.8661C45.5494 21.8661 45.5494 21.8661 44.5928 21.8661C44.5928 21.8661 44.5928 21.8661 44.5928 19.8594Z" fill="#D2DBD2"/>
<path fill-rule="evenodd" clip-rule="evenodd" d="M61.0713 19.668L61.1174 19.6738V21.8771L61.0713 21.8656C59.3425 21.8656 58.0056 23.2998 58.0056 25.1157C58.0056 27.0241 59.3425 28.5509 61.0713 28.5509L61.1174 28.5393V30.7427L61.0713 30.7485C58.0056 30.7485 55.6084 28.2617 55.6084 25.1157C55.6084 22.0564 58.0056 19.668 61.0713 19.668Z" fill="#D2DBD2"/>
<path fill-rule="evenodd" clip-rule="evenodd" d="M61.1162 19.6719L62.2169 19.776C64.7927 20.2733 66.6252 22.4362 66.6252 25.1138C66.6252 27.8666 64.7927 30.1162 62.2169 30.6309L61.1162 30.7408V28.5374L62.3321 28.283C63.4788 27.7625 64.2337 26.5422 64.2337 25.1138C64.2337 23.749 63.4788 22.6039 62.3321 22.1181L61.1162 21.8752V19.6719Z" fill="#D2DBD2"/>
<path fill-rule="evenodd" clip-rule="evenodd" d="M67.1006 19.8594C67.1006 19.8594 67.1006 19.8594 69.2097 19.8594C69.9761 19.8594 70.3564 20.2411 70.3564 21.1027C70.3564 21.1027 70.3564 21.1027 70.3564 28.3606C70.3564 28.4531 70.3564 28.4531 70.4544 28.4531C70.4544 28.4531 70.4544 28.4531 73.2319 28.4531C73.2319 28.4531 73.2319 28.4531 73.2319 19.8594C73.2319 19.8594 73.2319 19.8594 75.5312 19.8594C75.5312 19.8594 75.5312 19.8594 75.5312 28.4531C75.5312 28.4531 75.5312 28.4531 78.3087 28.4531C78.4067 28.4531 78.4067 28.4531 78.4067 28.3606C78.4067 28.3606 78.4067 28.3606 78.4067 21.1027C78.4067 20.2411 78.787 19.8594 79.5534 19.8594C79.5534 19.8594 79.5534 19.8594 81.6625 19.8594C81.6625 19.8594 81.6625 19.8594 81.6625 21.8661C81.6625 21.8661 81.6625 21.8661 80.7981 21.8661C80.7001 21.8661 80.7001 21.9644 80.7001 21.9644C80.7001 21.9644 80.7001 21.9644 80.7001 29.3148C80.7001 30.1765 80.3198 30.5582 79.5534 30.5582C79.5534 30.5582 79.5534 30.5582 69.3019 30.5582C68.4433 30.5582 68.0572 30.1765 68.0572 29.3148C68.0572 29.3148 68.0572 29.3148 68.0572 21.9644C68.0572 21.9644 68.0572 21.8661 67.965 21.8661C67.965 21.8661 67.965 21.8661 67.1006 21.8661C67.1006 21.8661 67.1006 21.8661 67.1006 19.8594Z" fill="#D2DBD2"/>
<path fill-rule="evenodd" clip-rule="evenodd" d="M83.4793 19.8594C83.4793 19.8594 83.4793 19.8594 90.6652 19.8594C91.5296 19.8594 91.8177 20.2411 91.8177 21.0044C91.8177 21.0044 91.8177 21.0044 91.8177 22.8203H89.7086C89.7086 22.8203 89.7086 22.8203 89.7086 21.9644C89.7086 21.8661 89.7086 21.8661 89.6107 21.8661C89.6107 21.8661 89.6107 21.8661 88.2738 21.8661C88.2738 21.8661 88.2738 21.8661 88.2738 30.5582C88.2738 30.5582 88.2738 30.5582 85.9688 30.5582C85.9688 30.5582 85.9688 30.5582 85.9688 21.8661C85.9688 21.8661 85.9688 21.8661 84.6318 21.8661C84.5339 21.8661 84.5339 21.8661 84.5339 21.9644C84.5339 21.9644 84.5339 21.9644 84.5339 22.8203C84.5339 22.8203 84.5339 22.8203 82.4248 22.8203C82.4248 22.8203 82.4248 22.8203 82.4248 21.0044C82.4248 20.2411 82.7129 19.8594 83.4793 19.8594Z" fill="#D2DBD2"/>
<path fill-rule="evenodd" clip-rule="evenodd" d="M94.7842 19.8594C94.7842 19.8594 94.7842 19.8594 95.7523 19.8594H95.931V22.9187C95.833 23.1095 95.7408 23.3929 95.7408 23.682C95.7408 23.682 95.7408 23.682 94.9744 25.8796C94.9744 25.8796 94.9744 25.8796 95.7811 25.8796H95.931V27.8806H95.4123C95.1185 27.8806 94.7842 27.8806 94.3981 27.8806C94.3981 27.8806 94.3981 27.8806 93.7297 29.5056C93.5395 30.269 93.1534 30.5582 92.387 30.5582C92.387 30.5582 92.387 30.5582 90.9521 30.5582C90.9521 30.5582 90.9521 30.5582 90.9521 28.4531C90.9521 28.4531 90.9521 28.4531 91.4304 28.4531C91.6264 28.4531 91.6264 28.4531 91.7186 28.3606C91.7186 28.3606 91.7186 28.3606 94.7842 19.8594Z" fill="#D2DBD2"/>
<path fill-rule="evenodd" clip-rule="evenodd" d="M95.9326 19.8593H97.0794C97.0794 19.8593 97.0794 19.8593 100.151 28.3605C100.243 28.453 100.243 28.453 100.439 28.453H100.819C100.819 28.453 100.819 28.453 100.819 30.558C100.819 30.558 100.819 30.558 99.4766 30.558C98.7102 30.558 98.3298 30.2689 98.1339 29.5055C98.1339 29.5055 98.1339 29.5055 97.4654 27.8805C97.4654 27.8805 97.4654 27.8805 96.1746 27.8805H95.9326V25.8795H96.8892C96.8892 25.8795 96.8892 25.8795 96.1228 23.6819C96.1228 23.3927 96.0306 23.1094 95.9326 22.9185V19.8593Z" fill="#D2DBD2"/>
<path fill-rule="evenodd" clip-rule="evenodd" d="M29.83 10.657C29.9395 10.6223 30.0836 10.6917 30.2276 10.8826C30.2276 10.8826 30.2276 10.8826 36.7393 17.2787C37.1196 17.6604 37.1196 18.2387 36.7393 18.5221C36.7393 18.5221 36.7393 18.5221 30.2276 25.0166C30.0836 25.2074 29.9395 25.2537 29.83 25.1958C29.7205 25.138 29.6514 24.9703 29.6514 24.7274V11.0734C29.6514 10.8363 29.7205 10.6917 29.83 10.657Z" fill="#D2DBD2"/>
<path fill-rule="evenodd" clip-rule="evenodd" d="M18.6928 0H19.1538L19.5976 0.185061C19.5976 0.185061 19.5976 0.185061 26.2994 6.87036C26.5875 7.25205 26.4895 7.5412 26.0112 7.5412C26.0112 7.5412 26.0112 7.5412 23.2337 7.5412C22.7554 7.5412 22.3751 7.92289 22.3751 8.40289C22.3751 8.40289 22.3751 8.40289 22.3751 13.3648C22.3751 13.8448 21.989 14.2265 21.4128 14.2265C21.4128 14.2265 21.4128 14.2265 16.5319 14.2265C16.0536 14.2265 15.6675 13.8448 15.6675 13.3648C15.6675 13.3648 15.6675 13.3648 15.6675 8.40289C15.6675 7.92289 15.2872 7.5412 14.8031 7.5412H11.8354C11.3571 7.5412 11.2592 7.25205 11.5473 6.87036C11.5473 6.87036 11.5473 6.87036 18.2549 0.185061L18.6928 0Z" fill="#D2DBD2"/>
<path fill-rule="evenodd" clip-rule="evenodd" d="M8.19249 10.5155C8.3135 10.5733 8.38841 10.741 8.38841 10.9839V24.9213C8.38841 25.1642 8.3135 25.3087 8.19249 25.355C8.07724 25.4013 7.91013 25.355 7.7142 25.2104C7.7142 25.2104 7.7142 25.2104 1.10458 18.5251C0.724254 18.2417 0.724254 17.6634 1.10458 17.2817C1.10458 17.2817 1.10458 17.2817 7.7142 10.6948C7.91013 10.5039 8.07724 10.4576 8.19249 10.5155Z" fill="#D2DBD2"/>
<path fill-rule="evenodd" clip-rule="evenodd" d="M16.5332 21.4844C16.5332 21.4844 16.5332 21.4844 21.4141 21.4844C21.9903 21.4844 22.3764 21.8661 22.3764 22.3461C22.3764 22.3461 22.3764 22.3461 22.3764 27.5971C22.3764 28.1697 22.7568 28.5514 23.2351 28.5514H25.8224C26.3007 28.5514 26.4909 28.8347 26.1106 29.1239C26.1106 29.1239 26.1106 29.1239 19.5989 35.7109C19.403 35.9017 19.1667 36 18.9247 36C18.6884 36 18.4464 35.9017 18.2562 35.7109C18.2562 35.7109 18.2562 35.7109 11.7446 29.1239C11.3585 28.8347 11.5486 28.5514 12.0269 28.5514C12.0269 28.5514 12.0269 28.5514 14.8045 28.5514C15.2885 28.5514 15.6689 28.1697 15.6689 27.5971C15.6689 27.5971 15.6689 27.5971 15.6689 22.3461C15.6689 21.8661 16.0549 21.4844 16.5332 21.4844Z" fill="#D2DBD2"/>
</g>
<defs>
<clipPath id="clip0_3001_913">
<rect width="100" height="36" fill="white" transform="translate(0.819336)"/>
</clipPath>
</defs>
</svg>
