<svg width="98" height="95" viewBox="0 0 98 95" fill="none" xmlns="http://www.w3.org/2000/svg">
<rect x="0.420471" y="0.000976562" width="97.1591" height="95" rx="20" fill="#E7EDDD"/>
<path fill-rule="evenodd" clip-rule="evenodd" d="M42.9406 40.0532C42.4383 40.0532 41.9359 40.2446 41.553 40.6275L41.5508 40.6253C41.1679 41.0104 40.9741 41.5127 40.9741 42.015H40.9786C40.9786 43.1006 41.8616 43.9812 42.9428 43.9812V43.9767C45.558 43.9812 45.4905 40.0532 42.9406 40.0532ZM40.2916 39.3685C42.6432 37.0171 46.6866 38.6883 46.6866 42.0172C46.6866 44.0826 45.0084 45.7628 42.9406 45.7628V45.7583C40.866 45.7583 39.1947 44.0849 39.1947 42.0172H39.1992C39.1992 41.1028 39.5776 40.0374 40.2939 39.3708L40.2916 39.3685ZM53.5274 52.6029C51.6983 54.4318 54.4757 57.2067 56.3047 55.38C57.5436 54.1413 56.6494 52.0241 54.9172 52.0241V52.0286C54.4036 52.0264 53.9103 52.2178 53.5274 52.6029ZM52.2659 51.3417C52.9913 50.6164 53.9598 50.2448 54.9149 50.2448V50.2493C58.251 50.2493 59.9111 54.2922 57.564 56.6391C55.2123 58.9905 51.1689 57.3193 51.1689 53.9903C51.1712 53.0331 51.5361 52.0737 52.2659 51.3417ZM54.7955 26.5097C59.0213 30.735 63.1119 26.7507 66.6485 30.2846C68.6015 32.2373 68.2771 34.3319 68.2771 36.9511C68.2771 42.9263 73.9872 43.0007 73.9872 48.0008C73.9872 50.7622 72.2776 52.0144 70.4237 53.8682C66.198 58.0935 70.1827 62.1838 66.6485 65.72C64.6955 67.6727 62.6007 67.3484 59.9813 67.3484C54.0118 67.3484 53.9288 73.058 48.9304 73.058C44.8173 73.058 44.1527 69.3259 40.693 67.8912V67.889C37.2398 66.4587 34.118 68.6232 31.2123 65.7178C29.2594 63.765 29.5837 61.6704 29.5837 59.0512C29.5837 53.076 23.8736 53.0016 23.8736 48.0015C23.8736 45.2401 25.5832 43.9879 27.4371 42.1341C31.6628 37.9088 27.6781 33.8185 31.2124 30.2823C33.1653 28.3296 35.2601 28.6539 37.8796 28.6539C43.86 28.6539 43.9251 22.9443 48.9304 22.9443C51.6988 22.9488 52.9664 24.683 54.7955 26.5097ZM39.8275 58.3639C38.9985 59.1928 37.7394 57.9337 38.5683 57.1049L58.0302 37.645C58.8591 36.8162 60.1183 38.0752 59.2893 38.904L39.8275 58.3639Z" fill="#224722"/>
</svg>
