<svg width="25" height="24" viewBox="0 0 25 24" fill="none" xmlns="http://www.w3.org/2000/svg">
<path d="M10.7219 7.26551C10.9312 8.25805 10.4726 8.55726 10.4726 8.55726L9.13672 9.34095C8.60428 9.63531 8.89423 10.2514 8.89423 10.2514C10.9817 14.4801 13.2908 15.7525 14.1314 16.3173C14.7396 16.726 15.11 16.4349 15.11 16.4349L16.8307 15.0954C17.4419 14.5366 17.9076 14.921 17.9076 14.921L21.3024 17.2888C21.88 17.6665 21.6207 18.4331 21.2044 19.0942C20.7925 19.7477 19.0756 21.3057 16.9422 20.9471C14.8083 20.5888 11.0159 19.1728 8.42353 15.5448C5.80554 11.8812 4.89404 8.67357 4.89404 8.67357C3.78558 5.3395 6.63081 3.56418 6.63081 3.56418C8.87011 2.24668 9.918 3.64969 9.918 3.64969C9.918 3.64969 10.5133 6.27244 10.7219 7.26551Z" fill="#224722"/>
</svg>
