<svg width="96" height="95" viewBox="0 0 96 95" fill="none" xmlns="http://www.w3.org/2000/svg">
<path d="M95.5 30.001C95.5 13.4324 82.0685 0.000976562 65.5 0.000976562H0.5V65.001C0.5 81.5695 13.9315 95.001 30.5 95.001H95.5V30.001Z" fill="#E7EDDD"/>
<path d="M61.4741 52.6051H50.9046C51.0103 52.1295 51.116 51.6539 51.2217 51.1254C51.9615 48.6416 51.9087 45.8935 51.2217 43.5682C50.9574 42.6169 50.5875 41.7714 50.2176 40.9258C53.0713 40.503 57.4048 39.2875 60.5757 36.1695C64.1693 32.5759 65.1734 27.3968 65.4905 24.7016C65.5962 23.7503 64.8035 22.9576 63.8522 23.0633C61.2099 23.3275 56.0308 24.3316 52.4372 27.9253C50.4818 29.8807 49.2663 32.3645 48.5264 34.5841C47.7866 32.3116 46.6239 29.8807 44.6157 27.9253C41.0221 24.3316 35.843 23.3275 33.1478 23.0105C32.1965 22.9048 31.4038 23.6975 31.5095 24.6487C31.8266 27.344 32.8307 32.523 36.4243 36.1167C39.5423 39.2347 43.8758 40.4502 46.7296 40.873C47.2052 42.0356 47.5752 43.1983 47.7866 44.3081C48.1036 46.2634 47.8923 48.0074 47.2052 49.6985C46.8353 50.5969 46.5711 51.5482 46.3068 52.5523H35.5788C34.9974 52.5523 34.5218 53.0279 34.5218 53.6092V57.6785C34.5218 58.2598 34.9974 58.7355 35.5788 58.7355H37.7455L40.1765 71.736C40.335 72.5816 41.0749 73.1629 41.9205 73.1629H55.1324C55.9779 73.1629 56.7178 72.5816 56.8764 71.736L59.3073 58.7355H61.4741C62.0554 58.7355 62.5311 58.2598 62.5311 57.6785V53.6092C62.5311 53.0808 62.0554 52.6051 61.4741 52.6051Z" fill="#224722"/>
</svg>
