<svg width="62" height="41" viewBox="0 0 62 41" fill="none" xmlns="http://www.w3.org/2000/svg">
<path fill-rule="evenodd" clip-rule="evenodd" d="M48.2911 13.6667C55.8689 13.6667 62 19.8167 62 27.3333C62 34.85 55.8 41 48.2222 41C40.6444 41 34.4444 34.85 34.4444 27.3333C34.4444 12.2317 46.7756 0 62 0C62 0 52.9756 3.34833 48.2911 13.6667ZM27.5556 27.3333C27.5556 34.85 21.3556 41 13.7778 41C6.2 41 0 34.85 0 27.3333C0 12.2317 12.3311 0 27.5556 0C27.5556 0 18.5311 3.34833 13.8467 13.6667C21.4244 13.6667 27.5556 19.8167 27.5556 27.3333Z" fill="#8EA58E"/>
</svg>
