<svg width="134" height="20" viewBox="0 0 134 20" fill="none" xmlns="http://www.w3.org/2000/svg">
<path fill-rule="evenodd" clip-rule="evenodd" d="M5.9152 0C0.657925 0 -1.9769 6.0699 1.73787 9.62343L8.60183 16.1895H0.490676V19.0205H14.0107C19.2702 19.0205 21.904 12.9462 18.1848 9.39398L11.3133 2.83106H19.447V0H5.9152ZM11.3119 2.83106H5.9152C3.29735 2.83106 1.98535 5.85355 3.83511 7.62301L10.7043 14.194L8.61224 16.1895H14.0107C16.6297 16.1895 17.9412 13.1648 16.0892 11.396L9.21702 4.83235L11.3119 2.83106Z" fill="#BECAAA"/>
<path d="M38.1582 3.94376C38.0916 3.94213 34.4081 3.94132 34.3406 3.94132C33.6495 3.94132 33.0298 4.00414 32.4813 4.12979C31.9328 4.25544 31.4611 4.44391 31.0662 4.69521C30.6713 4.93603 30.3697 5.23968 30.1613 5.60616C29.9528 5.97263 29.8486 6.39146 29.8486 6.86264C29.8486 7.35476 29.9474 7.77359 30.1448 8.11912C30.3532 8.45418 30.6275 8.73689 30.9675 8.96725C31.3185 9.18713 31.7079 9.37561 32.1358 9.53267C32.5745 9.68973 33.0243 9.82585 33.485 9.94102C33.9457 10.0562 34.39 10.1714 34.8178 10.2866C35.2565 10.4017 35.646 10.5326 35.986 10.6792C36.337 10.8258 36.6113 11.009 36.8087 11.2289C37.0171 11.4488 37.1213 11.7263 37.1213 12.0613C37.1213 12.2812 37.072 12.4749 36.9732 12.6425C36.8745 12.81 36.7374 12.9566 36.5619 13.0822C36.3864 13.1974 36.178 13.2969 35.9366 13.3806C35.7063 13.4539 35.4485 13.5115 35.1633 13.5534C34.8781 13.5848 34.5819 13.6005 34.2748 13.6005C34.232 13.6005 30.2177 13.6001 30.1756 13.5993V15.0917C30.218 15.0923 34.2322 15.0926 34.2748 15.0926C35.1852 15.0926 35.9915 14.9827 36.6935 14.7628C37.4065 14.5429 37.966 14.1921 38.3718 13.7105C38.7777 13.2183 38.9806 12.5849 38.9806 11.81C38.9806 11.3179 38.8764 10.9043 38.668 10.5693C38.4596 10.2237 38.1799 9.93579 37.8289 9.70543C37.4888 9.47508 37.0994 9.28137 36.6606 9.12431C36.2328 8.96725 35.7886 8.83113 35.3278 8.71595C34.8781 8.5903 34.4338 8.47513 33.9951 8.37042C33.5673 8.25524 33.1778 8.12959 32.8268 7.99347C32.4868 7.85736 32.2125 7.69506 32.0041 7.50659C31.7957 7.30764 31.6915 7.05635 31.6915 6.7527C31.6915 6.48046 31.7902 6.2501 31.9877 6.06163C32.1961 5.86269 32.4977 5.71086 32.8926 5.60616C33.2875 5.49098 33.7757 5.43339 34.357 5.43339C34.4196 5.43339 38.0976 5.4344 38.1582 5.43641V3.94376Z" fill="#BECAAA"/>
<path fill-rule="evenodd" clip-rule="evenodd" d="M46.9764 15.0926C45.8137 15.0926 44.8045 14.8884 43.9489 14.4801C43.1042 14.0717 42.4516 13.4539 41.9908 12.6268C41.5411 11.7996 41.3162 10.763 41.3162 9.51696C41.3162 8.26048 41.5411 7.22388 41.9908 6.40717C42.4516 5.57998 43.1042 4.96221 43.9489 4.55385C44.8045 4.1455 45.8137 3.94132 46.9764 3.94132C48.1611 3.94132 49.1758 4.1455 50.0204 4.55385C50.8651 4.96221 51.5123 5.57998 51.962 6.40717C52.4227 7.22388 52.6531 8.26048 52.6531 9.51696C52.6531 10.763 52.4227 11.7996 51.962 12.6268C51.5123 13.4539 50.8651 14.0717 50.0204 14.4801C49.1758 14.8884 48.1611 15.0926 46.9764 15.0926ZM46.9764 13.6005C47.5797 13.6005 48.1118 13.522 48.5725 13.3649C49.0442 13.2079 49.439 12.9671 49.7572 12.6425C50.0862 12.3179 50.333 11.9095 50.4976 11.4174C50.6731 10.9253 50.7609 10.3546 50.7609 9.70543V9.3599C50.7609 8.68978 50.6731 8.10865 50.4976 7.61653C50.333 7.12441 50.0862 6.71605 49.7572 6.39146C49.439 6.06687 49.0442 5.82604 48.5725 5.66898C48.1118 5.51192 47.5797 5.43339 46.9764 5.43339C46.3841 5.43339 45.8521 5.51192 45.3804 5.66898C44.9197 5.82604 44.5248 6.06687 44.1957 6.39146C43.8776 6.71605 43.6362 7.12441 43.4717 7.61653C43.3072 8.10865 43.2249 8.68978 43.2249 9.3599V9.70543C43.2249 10.3546 43.3072 10.9253 43.4717 11.4174C43.6362 11.9095 43.8776 12.3179 44.1957 12.6425C44.5248 12.9671 44.9197 13.2079 45.3804 13.3649C45.8521 13.522 46.3841 13.6005 46.9764 13.6005Z" fill="#BECAAA"/>
<path d="M55.5183 5.70145V14.9041H57.3612V10.3179H62.9884V8.82585H57.3612V6.2662C57.3612 5.91899 57.656 5.63752 58.0198 5.63752H63.5808V4.12974H57.1649C56.2555 4.12974 55.5183 4.83342 55.5183 5.70145Z" fill="#BECAAA"/>
<path d="M69.0821 14.9041V5.63752H65.347V4.12974H74.6929V5.63752H70.9249V14.9041H69.0821Z" fill="#BECAAA"/>
<path fill-rule="evenodd" clip-rule="evenodd" d="M77.1333 4.12974V14.9041H78.9761V10.742H82.8922L85.0312 14.9041H87.0386L84.6857 10.4436C85.3109 10.1923 85.7936 9.79962 86.1336 9.26562C86.4737 8.73161 86.6437 8.10337 86.6437 7.38089C86.6437 6.73171 86.5121 6.16629 86.2488 5.68464C85.9855 5.19252 85.5906 4.81034 85.0641 4.5381C84.5376 4.26586 83.8739 4.12974 83.0732 4.12974H77.1333ZM82.9251 9.26562H78.9761V5.63752H82.9251C83.331 5.63752 83.671 5.70558 83.9453 5.8417C84.2195 5.97782 84.4279 6.17676 84.5705 6.43853C84.7131 6.68983 84.7844 6.99871 84.7844 7.36519C84.7844 7.96202 84.6199 8.42796 84.2908 8.76302C83.9727 9.09809 83.5174 9.26562 82.9251 9.26562Z" fill="#BECAAA"/>
<path d="M92.6356 14.9041V10.475L88.2424 4.12974H90.3485L93.5735 8.90438H93.6558L96.8479 4.12974H98.8717L94.4785 10.475V14.9041H92.6356Z" fill="#BECAAA"/>
<path d="M100.287 14.0403V14.9041H109.617V13.3963H102.986L109.469 4.99358V4.12974H100.715V5.63752H106.737L100.287 14.0403Z" fill="#BECAAA"/>
<path d="M113.941 14.9041C113.032 14.9041 112.295 14.2004 112.295 13.3324V5.70145C112.295 4.83342 113.032 4.12974 113.941 4.12974H121.048V5.63752H114.796C114.433 5.63752 114.138 5.91899 114.138 6.2662V8.63738H120.324V10.1452H114.138V12.7676C114.138 13.1148 114.433 13.3963 114.796 13.3963H121.147V14.9041H113.941Z" fill="#BECAAA"/>
<path d="M124.122 14.9041V4.12974H125.899L131.675 11.7786H131.757V4.12974H133.534V14.9041H131.823L125.982 7.1453H125.899V14.9041H124.122Z" fill="#BECAAA"/>
</svg>
