<svg width="71" height="70" viewBox="0 0 71 70" fill="none" xmlns="http://www.w3.org/2000/svg">
<path fill-rule="evenodd" clip-rule="evenodd" d="M63.1337 9.97238C64.0694 10.7366 64.2085 12.1146 63.4443 13.0503L34.861 48.0503C34.4615 48.5395 33.8701 48.8321 33.239 48.853C32.6078 48.8738 31.9984 48.6209 31.5675 48.1592L19.3175 35.0342C18.4932 34.151 18.5409 32.7668 19.4241 31.9425C20.3073 31.1182 21.6915 31.1659 22.5159 32.0491L33.0568 43.3429L60.0557 10.283C60.8199 9.34727 62.1979 9.2082 63.1337 9.97238Z" fill="#224722"/>
<path d="M66.125 35C66.125 51.9137 52.4137 65.625 35.5 65.625C18.5863 65.625 4.875 51.9137 4.875 35C4.875 18.0863 18.5863 4.375 35.5 4.375C37.5385 4.375 39.5305 4.57418 41.4576 4.95413C42.8659 5.23178 44.25 4.20131 44.25 2.76598C44.25 1.78696 43.5886 0.925161 42.6299 0.726748C40.3279 0.250333 37.9432 0 35.5 0C16.17 0 0.5 15.67 0.5 35C0.5 54.33 16.17 70 35.5 70C54.83 70 70.5 54.33 70.5 35C70.5 34.6933 70.4961 34.3875 70.4882 34.0827C70.4591 32.9514 69.5093 32.0833 68.3776 32.0833C67.0958 32.0833 66.0987 33.1872 66.1205 34.4688C66.1235 34.6455 66.125 34.8226 66.125 35Z" fill="#224722"/>
</svg>
