<svg width="96" height="95" viewBox="0 0 96 95" fill="none" xmlns="http://www.w3.org/2000/svg">
<path d="M0.5 30.001C0.5 13.4324 13.9315 0.000976562 30.5 0.000976562H95.5V65.001C95.5 81.5695 82.0685 95.001 65.5 95.001H0.5V30.001Z" fill="#E7EDDD"/>
<path d="M66.4333 70.8676C66.4335 71.0822 66.3913 71.2946 66.3092 71.4928C66.2272 71.6911 66.1069 71.8712 65.9552 72.0229C65.8035 72.1745 65.6234 72.2949 65.4252 72.3769C65.227 72.4589 65.0145 72.5011 64.8 72.501H32.1333C31.9188 72.5011 31.7064 72.4589 31.5081 72.3769C31.3099 72.2949 31.1298 72.1745 30.9781 72.0229C30.8264 71.8712 30.7061 71.6911 30.6241 71.4928C30.542 71.2946 30.4999 71.0822 30.5 70.8676C30.5 66.1026 32.3929 61.5327 35.7623 58.1633C39.1317 54.7939 43.7016 52.901 48.4667 52.901C53.2317 52.901 57.8016 54.7939 61.171 58.1633C64.5404 61.5327 66.4333 66.1026 66.4333 70.8676ZM48.4667 30.0343C46.5284 30.0343 44.6337 30.6091 43.0221 31.6859C41.4105 32.7627 40.1544 34.2933 39.4126 36.084C38.6709 37.8747 38.4768 39.8452 38.855 41.7462C39.2331 43.6472 40.1665 45.3934 41.537 46.764C42.9076 48.1345 44.6538 49.0679 46.5548 49.446C48.4558 49.8241 50.4262 49.6301 52.217 48.8883C54.0077 48.1466 55.5382 46.8905 56.6151 45.2789C57.6919 43.6673 58.2667 41.7726 58.2667 39.8343C58.2638 37.2361 57.2304 34.745 55.3932 32.9078C53.5559 31.0706 51.0649 30.0372 48.4667 30.0343ZM33.7667 44.7343C34.6327 44.7332 35.4629 44.3887 36.0753 43.7763C36.6877 43.1639 37.0322 42.3337 37.0333 41.4676V38.201C37.0333 37.3346 36.6892 36.5037 36.0765 35.8911C35.4639 35.2785 34.633 34.9343 33.7667 34.9343C32.9003 34.9343 32.0694 35.2785 31.4568 35.8911C30.8442 36.5037 30.5 37.3346 30.5 38.201V41.4676C30.5011 42.3337 30.8457 43.1639 31.458 43.7763C32.0704 44.3887 32.9006 44.7332 33.7667 44.7343ZM48.4667 26.7676C50.6621 26.7699 52.8216 27.3257 54.7454 28.3836C56.6692 29.4415 58.2951 30.9675 59.4729 32.8203C60.4093 32.1859 61.4953 31.8075 62.6232 31.7226C61.1983 29.2253 59.1383 27.1494 56.652 25.7055C54.1658 24.2615 51.3418 23.501 48.4667 23.501C45.5915 23.501 42.7676 24.2615 40.2813 25.7055C37.795 27.1494 35.735 29.2253 34.3102 31.7226C35.438 31.8075 36.524 32.1859 37.4604 32.8203C38.6382 30.9675 40.2642 29.4415 42.1879 28.3836C44.1117 27.3257 46.2712 26.7699 48.4667 26.7676ZM63.1667 34.9343C62.3006 34.9354 61.4704 35.28 60.858 35.8923C60.2456 36.5047 59.9011 37.3349 59.9 38.201V41.4676C59.9009 42.0127 60.0384 42.5489 60.2998 43.0272C60.5613 43.5054 60.9385 43.9106 61.3968 44.2055C61.1475 45.2828 60.5411 46.2441 59.6763 46.9331C58.8115 47.6222 57.7391 47.9985 56.6333 48.001C56.2001 48.001 55.7847 48.1731 55.4784 48.4794C55.1721 48.7857 55 49.2011 55 49.6343C55 50.0675 55.1721 50.4829 55.4784 50.7893C55.7847 51.0956 56.2001 51.2676 56.6333 51.2676C58.5784 51.2623 60.4576 50.5621 61.9319 49.2933C63.4062 48.0246 64.3787 46.2708 64.6739 44.3482C65.2023 44.0746 65.6456 43.6614 65.9558 43.1536C66.266 42.6458 66.4311 42.0627 66.4333 41.4676V38.201C66.4322 37.3349 66.0877 36.5047 65.4753 35.8923C64.8629 35.28 64.0327 34.9354 63.1667 34.9343Z" fill="#224722"/>
</svg>
