<svg width="135" height="36" viewBox="0 0 135 36" fill="none" xmlns="http://www.w3.org/2000/svg">
<g clip-path="url(#clip0_3001_883)">
<path d="M24.2539 20.6671C24.253 20.6668 12.4459 17.9697 12.4459 17.9697C8.92669 17.1658 6.71904 13.6342 7.51521 10.0815C8.31185 6.52886 11.8105 4.30087 15.3298 5.10454C18.8492 5.90852 21.0567 9.44011 20.2604 12.9925C19.8615 14.7712 18.7851 16.2165 17.368 17.1169C17.3678 17.1169 17.3644 17.1198 17.363 17.1205C17.3214 17.1507 17.2944 17.1999 17.2944 17.2552C17.2944 17.3327 17.3474 17.3978 17.419 17.4152C17.4192 17.4154 22.6714 18.6143 22.6724 18.6143C22.7974 18.6429 22.9271 18.5942 23.0039 18.4918C23.0043 18.4909 23.0041 18.4916 23.0041 18.4916C24.4511 16.5589 25.3203 14.1473 25.3203 11.539C25.3203 5.39625 20.5659 0.37627 14.5691 0.019722C14.5157 0.0167351 14.1907 0.00392151 14.0809 0.00234222C11.4258 -0.0397339 8.73371 0.728775 6.3927 2.38371C0.480788 6.56221 -0.955581 14.7869 3.18346 20.7544L13.6882 35.8983C13.7331 35.96 13.8053 36 13.8863 36C13.9681 36 14.0405 35.9593 14.0852 35.8971C14.0852 35.8971 24.4006 21.0476 24.4015 21.0462C24.4278 21.0069 24.4434 20.9592 24.4434 20.908C24.4434 20.7905 24.3626 20.6922 24.2539 20.6671Z" fill="#D2DBD2"/>
<path d="M34.3591 7.09C34.4855 7.09 34.5692 7.13225 34.6111 7.21705L38.1138 13.2508H38.2814L41.2599 7.30143C41.3226 7.15309 41.4488 7.09 41.6165 7.09H43.7558C43.9447 7.09 44.0493 7.2806 43.9653 7.42853L37.7989 18.4383C37.7361 18.5651 37.6105 18.6289 37.4424 18.6289H35.3451C35.1143 18.6289 35.0935 18.4806 35.1775 18.3112L36.8342 15.4527L31.8844 7.36521C31.8002 7.21705 31.8634 7.09 32.0101 7.09H34.3591Z" fill="#D2DBD2"/>
<path d="M47.6498 7.09C47.8386 7.09 47.9435 7.19557 47.9435 7.38622V11.9143L52.6631 7.25912C52.7888 7.15309 52.9775 7.09 53.2082 7.09H55.7671C55.9559 7.09 56.0191 7.25912 55.8719 7.40746L50.8588 12.1501L56.1867 18.3112C56.3334 18.4591 56.2499 18.6289 56.061 18.6289H53.544C53.3133 18.6289 53.1457 18.5651 53.0193 18.4168L49.028 13.6643L47.9435 14.6824V18.3322C47.9435 18.5229 47.8386 18.6289 47.6498 18.6289H45.8042C45.6153 18.6289 45.5107 18.5229 45.5107 18.3322V7.38622C45.5107 7.19557 45.6153 7.09 45.8042 7.09H47.6498Z" fill="#D2DBD2"/>
<path d="M63.142 13.23C64.4214 13.23 65.1553 12.4256 65.1553 11.3035C65.1553 10.2024 64.4214 9.41924 63.142 9.41924H60.1002V13.23H63.142ZM63.142 7.09C65.6793 7.09 67.5877 8.9319 67.5877 11.3035C67.5877 13.7594 65.6793 15.559 63.142 15.559H60.1002V18.3325C60.1002 18.5229 59.9953 18.6289 59.8069 18.6289H57.9607C57.7721 18.6289 57.667 18.5229 57.667 18.3325V7.38645C57.667 7.1958 57.7721 7.09 57.9607 7.09H63.142Z" fill="#D2DBD2"/>
<path d="M79.054 7.09C79.2424 7.09 79.3479 7.19557 79.3479 7.38622V18.3322C79.3479 18.5229 79.2424 18.6289 79.054 18.6289H77.2076C77.0198 18.6289 76.9143 18.5229 76.9143 18.3322V9.39753H71.8383V18.3322C71.8383 18.5229 71.7334 18.6289 71.545 18.6289H69.6992C69.5102 18.6289 69.4053 18.5229 69.4053 18.3322V7.38622C69.4053 7.19557 69.5102 7.09 69.6992 7.09H79.054Z" fill="#D2DBD2"/>
<path d="M83.9647 12.8685C83.9647 14.9646 85.4325 16.4886 87.5299 16.4886C89.607 16.4886 91.0754 14.9646 91.0754 12.8685C91.0754 10.7301 89.607 9.22697 87.5299 9.22697C85.4325 9.22697 83.9647 10.7301 83.9647 12.8685ZM87.5299 6.91893C90.8232 6.91893 93.5293 9.48088 93.5293 12.8685C93.5293 16.2772 90.8232 18.7969 87.5299 18.7969C84.2163 18.7969 81.5107 16.2772 81.5107 12.8685C81.5107 9.48088 84.2163 6.91893 87.5299 6.91893Z" fill="#D2DBD2"/>
<path d="M101.676 16.3211V7.38599C101.676 7.1958 101.781 7.09 101.97 7.09H103.774C103.963 7.09 104.068 7.1958 104.068 7.38599V16.3211H107.654V7.38599C107.654 7.1958 107.759 7.09 107.948 7.09H109.752C109.941 7.09 110.045 7.1958 110.045 7.38599V18.3322C110.045 18.5229 109.941 18.6289 109.752 18.6289H95.9922C95.8455 18.6289 95.6982 18.5229 95.6982 18.3322V7.38599C95.6982 7.1958 95.8026 7.09 95.9922 7.09H97.7956C97.9846 7.09 98.0895 7.1958 98.0895 7.38599V16.3211H101.676Z" fill="#D2DBD2"/>
<path d="M121.698 7.09C121.885 7.09 121.991 7.19557 121.991 7.38622V9.12232C121.991 9.31297 121.885 9.41859 121.698 9.41859H118.048V18.3322C118.048 18.5229 117.942 18.6289 117.754 18.6289H115.908C115.72 18.6289 115.615 18.5229 115.615 18.3322V9.41859H111.965C111.776 9.41859 111.671 9.31297 111.671 9.12232V7.38622C111.671 7.19557 111.776 7.09 111.965 7.09H121.698Z" fill="#D2DBD2"/>
<path d="M125.85 14.1194H129.835L127.99 9.37699H127.759L125.85 14.1194ZM130.675 16.3424H124.969L124.173 18.3747C124.11 18.5443 123.984 18.6289 123.816 18.6289H121.74C121.53 18.6289 121.467 18.5229 121.53 18.3325L126.48 7.25959C126.522 7.15355 126.606 7.09 126.753 7.09H129.144C129.29 7.09 129.374 7.15355 129.416 7.25959L134.135 18.2899C134.199 18.4598 134.094 18.6289 133.905 18.6289H131.912C131.703 18.6289 131.555 18.5229 131.472 18.3325L130.675 16.3424Z" fill="#D2DBD2"/>
<path d="M33.499 28.5234V23.5821H36.7196V24.1513H34.146V28.5234H33.499Z" fill="#D2DBD2"/>
<path d="M38.3098 26.0451C38.3098 27.2806 38.9772 28.0786 40.0163 28.0786C41.0417 28.0786 41.7091 27.2732 41.7091 26.0451C41.7091 24.8238 41.0417 24.0326 40.0025 24.0326C38.8465 24.0326 38.3098 24.9901 38.3098 26.0451ZM42.3562 26.0103C42.3562 27.4611 41.5648 28.6406 40.0095 28.6406C38.4407 28.6406 37.6631 27.4331 37.6631 25.9964C37.6631 24.4562 38.5782 23.4635 40.0025 23.4635C41.5233 23.4635 42.3562 24.539 42.3562 26.0103Z" fill="#D2DBD2"/>
<path d="M47.417 28.5247H46.7702V24.1525H44.9605L44.8642 26.9353C44.8298 27.928 44.4718 28.6289 43.7288 28.6289C43.5909 28.6289 43.3846 28.5802 43.2607 28.5315V27.9763C43.3504 28.0321 43.5361 28.046 43.6115 28.046C43.9625 28.046 44.2175 27.8515 44.2517 26.5952L44.3411 23.5833H47.417V28.5247Z" fill="#D2DBD2"/>
<path d="M49.5915 26.0451C49.5915 27.2806 50.2589 28.0786 51.2981 28.0786C52.3232 28.0786 52.9908 27.2732 52.9908 26.0451C52.9908 24.8238 52.3232 24.0326 51.2843 24.0326C50.1282 24.0326 49.5915 24.9901 49.5915 26.0451ZM53.6375 26.0103C53.6375 27.4611 52.8465 28.6406 51.2913 28.6406C49.7222 28.6406 48.9443 27.4331 48.9443 25.9964C48.9443 24.4562 49.8599 23.4635 51.2843 23.4635C52.8051 23.4635 53.6375 24.539 53.6375 26.0103Z" fill="#D2DBD2"/>
<path d="M55.7921 27.9751H57.086C57.7396 27.9751 58.3795 27.9337 58.3795 27.0662C58.3795 26.2056 57.6295 26.2124 56.976 26.2124H55.7921V27.9751ZM55.7921 25.6988H56.9551C57.5057 25.6988 58.1664 25.6572 58.1664 24.9148C58.1664 24.1718 57.5949 24.1374 57.0172 24.1374H55.7921V25.6988ZM57.2511 23.5821C58.0632 23.5821 58.8128 23.9085 58.8128 24.8174C58.8128 25.3031 58.531 25.7198 58.0905 25.8791C58.6961 26.0184 59.0331 26.476 59.0331 27.1286C59.0331 28.2667 58.1112 28.5234 57.1755 28.5234H55.1592V23.5821H57.2511Z" fill="#D2DBD2"/>
<path d="M64.4583 28.5234H63.8114V26.2124H61.2241V28.5234H60.5771V23.5821H61.2241V25.643H63.8114V23.5821H64.4583V28.5234Z" fill="#D2DBD2"/>
<path d="M68.0736 24.2066L67.2272 26.4902H68.9066L68.0736 24.2066ZM70.3652 28.5234H69.6429L69.0991 27.0106H67.0417L66.4846 28.5234H65.7959L67.7229 23.5821H68.4521L70.3652 28.5234Z" fill="#D2DBD2"/>
<path d="M78.3411 28.5234H77.6942V24.1513H75.1069V28.5234H74.46V23.5821H78.3411V28.5234Z" fill="#D2DBD2"/>
<path d="M80.521 26.0451C80.521 27.2806 81.1882 28.0786 82.2271 28.0786C83.2526 28.0786 83.9198 27.2732 83.9198 26.0451C83.9198 24.8238 83.2526 24.0326 82.2137 24.0326C81.0572 24.0326 80.521 24.9901 80.521 26.0451ZM84.5668 26.0103C84.5668 27.4611 83.7755 28.6406 82.2207 28.6406C80.6514 28.6406 79.874 27.4331 79.874 25.9964C79.874 24.4562 80.7888 23.4635 82.2137 23.4635C83.7343 23.4635 84.5668 24.539 84.5668 26.0103Z" fill="#D2DBD2"/>
<path d="M86.0889 23.5821H86.7358V27.9545H88.9103V23.5821H89.5567V27.9545H91.7312V23.5821H92.3781V28.5234H86.0889V23.5821Z" fill="#D2DBD2"/>
<path d="M97.6931 24.1513H96.0484V28.5234H95.4015V24.1513H93.7568V23.5821H97.6931V24.1513Z" fill="#D2DBD2"/>
<path d="M100.199 24.2066L99.3528 26.4902H101.032L100.199 24.2066ZM102.491 28.5234H101.768L101.224 27.0106H99.1667L98.6096 28.5234H97.9209L99.8479 23.5821H100.577L102.491 28.5234Z" fill="#D2DBD2"/>
<path d="M108.498 25.5671L110.645 28.5234H109.819L108.044 26.011L107.232 26.7887V28.5234H106.585V23.5821H107.232V26.0321L109.716 23.5821H110.562L108.498 25.5671Z" fill="#D2DBD2"/>
<path d="M112.654 25.9487H113.899C114.526 25.9487 115.007 25.7752 115.007 25.0467C115.007 24.2553 114.45 24.1442 113.81 24.1442H112.654V25.9487ZM114.023 23.5821C114.959 23.5821 115.654 23.9776 115.654 25.0048C115.654 26.1223 114.938 26.497 113.982 26.497H112.654V28.5234H112.007V23.5821H114.023Z" fill="#D2DBD2"/>
<path d="M118.519 24.2066L117.673 26.4902H119.351L118.519 24.2066ZM120.81 28.5234H120.088L119.544 27.0106H117.487L116.929 28.5234H116.241L118.168 23.5821H118.897L120.81 28.5234Z" fill="#D2DBD2"/>
<path d="M123.442 23.1588H122.823V22.4579H123.442V23.1588ZM122.802 28.5234H122.155V23.5821H122.802V28.5234ZM122.142 23.1588H121.522V22.4579H122.142V23.1588Z" fill="#D2DBD2"/>
<path d="M128.473 28.5234H127.827V26.2124H125.24V28.5234H124.593V23.5821H125.24V25.643H127.827V23.5821H128.473V28.5234Z" fill="#D2DBD2"/>
<path d="M130.253 23.5821H130.9V27.767H130.913L133.315 23.5821H134.134V28.5234H133.487V24.3246H133.473L131.065 28.5234H130.253V23.5821Z" fill="#D2DBD2"/>
</g>
<defs>
<clipPath id="clip0_3001_883">
<rect width="133.333" height="36" fill="white" transform="translate(0.819336)"/>
</clipPath>
</defs>
</svg>
